<svg width="44" height="56" viewBox="0 0 44 56" fill="none" xmlns="http://www.w3.org/2000/svg">
<path d="M42.0922 1.56091H1.83301V54.8774H42.0922V1.56091Z" fill="#FEE9FE"/>
<path d="M1.83301 1.56091H42.0922V54.8774H1.83301V1.56091Z" stroke="#1B1918" stroke-width="2"/>
<path fill-rule="evenodd" clip-rule="evenodd" d="M21.9864 17.6433C29.6142 17.6433 35.8691 23.9199 36.5053 31.9065H32.6419C32.0317 26.1865 27.4887 21.7444 21.9885 21.7444C16.0584 21.7444 11.2542 26.8917 11.2542 33.2297C11.2542 39.5757 16.0588 44.7149 21.9885 44.7149C27.5142 44.7149 32.0654 40.2405 32.6517 34.4996H36.5074C35.901 42.5182 29.6321 48.825 21.9864 48.825C14.0453 48.825 7.59066 42.0234 7.42021 33.5693H7.41211V7.61206H11.1962V22.7591C12.5106 21.1687 14.1583 19.8864 16.0228 19.0028C17.8873 18.1191 19.9231 17.6558 21.9864 17.6454" fill="#009035"/>
<path fill-rule="evenodd" clip-rule="evenodd" d="M25.6796 30.2659C26.2743 30.2257 26.8674 30.3652 27.3817 30.6665C27.8961 30.9678 28.3079 31.4169 28.5636 31.9553C28.8193 32.4937 28.9072 33.0967 28.8157 33.6857C28.7242 34.2747 28.4576 34.8226 28.0506 35.2581C27.6436 35.6936 27.115 35.9966 26.5335 36.1276C25.952 36.2587 25.3445 36.2118 24.79 35.993C24.2355 35.7743 23.7597 35.3937 23.4243 34.9009C23.089 34.4081 22.9097 33.8258 22.9097 33.2297C22.8853 32.4698 23.1631 31.7311 23.6823 31.1756C24.2015 30.6201 24.9197 30.293 25.6796 30.2659Z" fill="#009035"/>
<path fill-rule="evenodd" clip-rule="evenodd" d="M25.1132 22.6581C30.1514 22.6581 34.3063 26.6898 34.9105 31.9052H32.2796C31.6911 28.2379 28.7111 25.4425 25.1132 25.4425C21.0952 25.4425 17.8378 28.9334 17.8378 33.2288C17.8378 37.5328 21.0952 41.0152 25.1132 41.0152C28.7111 41.0152 31.6911 38.2214 32.2796 34.5524H34.9093C34.305 39.7692 30.1502 43.7996 25.112 43.7996C19.6574 43.7996 15.2256 39.0694 15.2256 33.2275C15.2256 27.3929 19.6536 22.6555 25.112 22.6555" fill="#009035"/>
</svg>
