<svg width="75" height="75" viewBox="0 0 75 75" fill="none" xmlns="http://www.w3.org/2000/svg">
<path d="M75 0H0V75H75V0Z" fill="#FEE9FE"/>
<path fill-rule="evenodd" clip-rule="evenodd" d="M10.84 41.293L16.7994 22.1424C17.2994 20.5201 18.0506 19.4152 19.0328 18.8288C19.5182 18.5375 20.0616 18.3576 20.6242 18.3019C21.1867 18.2462 21.7545 18.3161 22.2871 18.5066C22.8466 18.6555 23.3669 18.9256 23.8117 19.298C24.2564 19.6704 24.6148 20.1361 24.8617 20.6625C25.3337 21.7018 25.3231 23.0403 24.8231 24.6622L18.7214 44.2457C18.0851 46.1176 17.7535 48.0805 17.7392 50.0586C17.7301 51.6312 18.2772 53.1558 19.2828 54.3601C20.2828 55.5877 21.9163 56.5444 24.1909 57.2612C27.3141 58.2464 29.7877 58.1055 31.6117 56.8385C33.4348 55.5672 34.8742 53.2334 35.9299 49.837L42.0689 30.0912C42.5773 28.451 43.3227 27.3319 44.2922 26.7566C44.7818 26.4697 45.328 26.2939 45.8924 26.2418C46.4568 26.1897 47.0257 26.2624 47.5591 26.4549C48.1092 26.6061 48.6206 26.874 49.0592 27.2406C49.4977 27.6072 49.8531 28.0639 50.1015 28.5801C50.6015 29.6297 50.5913 30.9784 50.0812 32.6109L44.1218 51.761C43.3665 54.4045 42.2507 56.9299 40.8062 59.2653C39.5273 61.1771 37.7548 62.7024 35.679 63.6775C33.8254 64.5596 31.8013 65.0201 29.7506 65.0262C27.3766 64.9978 25.0212 64.6002 22.768 63.8476C20.0987 63.0633 17.5554 61.897 15.2163 60.3843C13.359 59.2288 11.8409 57.597 10.818 55.6564C9.79507 53.7158 9.30412 51.5364 9.39556 49.3419C9.49032 46.6033 9.97652 43.8927 10.8392 41.2934" fill="#E30016"/>
<path fill-rule="evenodd" clip-rule="evenodd" d="M63.3355 33.5258L57.3762 52.6764C56.8762 54.288 56.125 55.3968 55.1427 55.99C54.6567 56.2812 54.1124 56.4602 53.5492 56.5141C52.986 56.5681 52.4179 56.4956 51.886 56.302C51.3275 56.1569 50.808 55.8893 50.3646 55.5183C49.9212 55.1473 49.565 54.6822 49.3216 54.1564C48.8419 53.1093 48.8525 51.77 49.3639 50.1507L55.4542 30.5671C56.0877 28.6944 56.4226 26.7327 56.4466 24.7546C56.4448 23.184 55.8989 21.663 54.9029 20.4532C53.8925 19.2333 52.2564 18.2663 49.9949 17.5521C46.8593 16.5745 44.3868 16.7062 42.5635 17.9748C40.7504 19.2434 39.3067 21.5825 38.2555 24.9865L32.1131 44.7178C31.6046 46.3606 30.8618 47.4796 29.8898 48.0626C29.3992 48.3513 28.8512 48.5271 28.285 48.5775C27.7188 48.6279 27.1486 48.5516 26.6152 48.3541C26.0648 48.2039 25.5529 47.9364 25.1142 47.5699C24.6755 47.2033 24.3204 46.7461 24.0728 46.2294C23.5805 45.1926 23.5805 43.843 24.0932 42.2011L30.0525 23.0505C31.0245 19.9397 32.1245 17.4392 33.3783 15.5565C34.6514 13.6396 36.4255 12.1129 38.5055 11.1443C40.3552 10.2505 42.3817 9.78859 44.4338 9.793C46.8081 9.81917 49.1638 10.2168 51.4165 10.9717C54.0843 11.7615 56.6269 12.9286 58.9682 14.4379C60.8068 15.6341 62.3243 17.2672 63.3864 19.1931C64.3643 21.1348 64.843 23.292 64.7788 25.4676C64.6841 28.2095 64.1979 30.9235 63.3351 33.5262" fill="#00639B"/>
</svg>
