<svg width="75" height="75" viewBox="0 0 75 75" fill="none" xmlns="http://www.w3.org/2000/svg">
<path d="M75 0H0V75H75V0Z" fill="#FEE9FE"/>
<path fill-rule="evenodd" clip-rule="evenodd" d="M37.7702 11.9203C51.0329 11.9203 61.7854 23.4266 61.7854 37.6194C61.7854 51.2071 51.9125 62.3381 39.4316 63.255V42.0932C40.2896 41.7061 41.0153 41.0761 41.5191 40.281C42.0228 39.4859 42.2824 38.5605 42.2659 37.6194C42.2659 34.9605 40.2494 32.8072 37.7702 32.8072C35.2833 32.8072 33.2668 34.961 33.2668 37.6194C33.2517 38.5609 33.5124 39.4861 34.0169 40.2811C34.5214 41.0761 35.2475 41.706 36.1058 42.0932V63.2555C23.6168 62.3377 13.752 51.2072 13.752 37.6199C13.752 23.4249 24.507 11.9207 37.7693 11.9207" fill="#009EE0"/>
</svg>
