<svg width="57" height="56" viewBox="0 0 57 56" fill="none" xmlns="http://www.w3.org/2000/svg">
<path fill-rule="evenodd" clip-rule="evenodd" d="M19.2595 28.409V23.0094L19.4257 22.6031L27.8931 14.1128V15.7459L20.4195 23.2408V28.4103M16.9571 28.4103V22.2141L17.1233 21.8077L27.8935 10.9802V12.6247L18.1166 22.4552V28.409L16.9571 28.4103ZM8.38965 22.0022H14.8243V22.0683L27.8948 8.93274V22.3077L21.7303 28.4094H8.39221L8.38965 22.0022Z" fill="#E30016"/>
<path fill-rule="evenodd" clip-rule="evenodd" d="M27.8923 37.0036H22.46L22.0534 36.8286L13.5137 28.4099H15.156L22.7037 35.851H27.8941M27.8941 39.2938H21.6639L21.2553 39.1286L10.3662 28.4099H12.0179L21.9043 38.1408H27.8923L27.8941 39.2938ZM21.4594 47.8108V41.4057H21.5139L8.30371 28.4091H21.7568L27.8932 34.5485V47.8112L21.4594 47.8108Z" fill="#E30016"/>
<path fill-rule="evenodd" clip-rule="evenodd" d="M36.5343 28.4099V33.8188L36.3681 34.2252L27.8936 42.7171V41.0841L35.3748 33.5794V28.4099M38.8372 28.4099V34.6048L38.671 35.0091L27.8936 45.8459V44.2036L37.6776 34.3731V28.4099H38.8372ZM47.4068 34.8163H40.964V34.762L27.8936 47.8976V34.5116L34.0657 28.4099H47.4072L47.4068 34.8163Z" fill="#E30016"/>
<path fill-rule="evenodd" clip-rule="evenodd" d="M27.8933 19.8264H33.3329L33.7416 19.9916L42.2801 28.4086H40.6382L33.0905 20.9798H27.8916M27.8916 17.537H34.1315L34.5308 17.7022L45.4292 28.409H43.7754L33.889 18.6899H27.8933L27.8916 17.537ZM34.3344 9.00647V15.4128H34.2785L47.4888 28.4094H34.0292L27.8929 22.2819V9.00647H34.3344Z" fill="#E30016"/>
</svg>
