<svg width="60" height="31" viewBox="0 0 60 31" fill="none" xmlns="http://www.w3.org/2000/svg">
<path d="M0.366211 0.482422V6.40528L8.66833 14.7273V30.9217H14.0798V14.5014L0.366211 0.482422Z" fill="#213A81"/>
<path d="M59.1393 0.473022V6.39588L50.8372 14.7183V30.9127H45.4258V14.4933L59.1393 0.473022Z" fill="#213A81"/>
<path d="M21.5667 30.9217H16.1553V14.4277L29.6782 0.482422L43.3015 14.2614V30.9217H37.726V14.7273L29.6129 6.52142L21.7926 14.4311L21.5667 30.9217Z" fill="#213A81"/>
<path d="M33.3771 17.8015H25.2725V30.9218H33.3771V17.8015Z" fill="#213A81"/>
<path d="M14.4747 8.20445C16.7809 8.20445 18.6505 6.4031 18.6505 4.18102C18.6505 1.95894 16.7809 0.157593 14.4747 0.157593C12.1684 0.157593 10.2988 1.95894 10.2988 4.18102C10.2988 6.4031 12.1684 8.20445 14.4747 8.20445Z" fill="#213A81"/>
<path d="M44.3233 8.20445C46.6296 8.20445 48.4992 6.4031 48.4992 4.18102C48.4992 1.95894 46.6296 0.157593 44.3233 0.157593C42.0171 0.157593 40.1475 1.95894 40.1475 4.18102C40.1475 6.4031 42.0171 8.20445 44.3233 8.20445Z" fill="#213A81"/>
</svg>
