<svg width="75" height="75" viewBox="0 0 75 75" fill="none" xmlns="http://www.w3.org/2000/svg">
<g clip-path="url(#clip0_111_207)">
<path d="M75 0H0V75H75V0Z" fill="#FEE9FE"/>
<path fill-rule="evenodd" clip-rule="evenodd" d="M30.9635 44.3233V39.2867H29.0368L35.1644 34.251L41.358 39.2867H38.9449V44.3233H30.9635ZM62.9322 37.4927C62.9079 30.942 60.3148 24.6686 55.722 20.0497C51.1291 15.4308 44.9119 12.8439 38.4351 12.8567H11.8644V30.5923L19.6801 24.8666L31.0712 33.2186H26.9084V44.2582H11.8644V62.136H38.397C41.6085 62.1498 44.7912 61.523 47.7629 60.2916C50.7347 59.0601 53.4373 57.2481 55.7161 54.9593C57.9949 52.6705 59.8051 49.9497 61.0433 46.9526C62.2816 43.9555 62.9234 40.7409 62.9322 37.4927Z" fill="#E30016"/>
</g>
<defs>
<clipPath id="clip0_111_207">
<rect width="75" height="75" fill="white"/>
</clipPath>
</defs>
</svg>
