<svg width="53" height="56" viewBox="0 0 53 56" fill="none" xmlns="http://www.w3.org/2000/svg">
<path fill-rule="evenodd" clip-rule="evenodd" d="M0.258108 37.1645L13.0501 50.774L25.8916 37.1645V34.1L13.0488 47.7104L0.256836 34.1009M0.256836 41.5861L13.0488 55.1401L25.8903 41.5857V38.4698L13.0488 52.0802L0.256836 38.4707V41.5861ZM13.0488 23.6101L4.89667 32.5739L6.28056 33.985L13.0488 26.5558L19.8166 33.9846L21.2573 32.5153C18.5348 29.5073 15.8183 26.4976 13.0488 23.6101ZM13.0488 19.4118L2.91785 30.5278L4.30938 31.9461L13.0488 22.3069L21.8395 31.9461L23.231 30.5278C19.8708 26.7256 16.5136 22.984 13.0488 19.4118ZM13.0488 15.1625L0.896667 28.5454L2.28057 29.9072L13.0488 18.1069L23.8115 29.9072L25.2522 28.4872C21.2018 24.0096 17.2077 19.4118 13.0488 15.163V15.1625ZM39.9085 23.6097L31.7564 32.5739L33.1403 33.985L39.9098 26.5562L46.6776 33.985L48.1183 32.5158C45.4018 29.5073 42.6831 26.4976 39.9098 23.6101L39.9085 23.6097ZM39.9085 19.4114L29.7861 30.5278L31.17 31.9461L39.9111 22.3069L48.709 31.9461L50.0929 30.5278C46.7352 26.7256 43.3717 22.984 39.9098 19.4118L39.9085 19.4114ZM39.9085 15.1621L27.7564 28.5454L29.1458 29.9072L39.9085 18.1069L50.6776 29.9072L52.1111 28.4872C48.0615 24.0096 44.0657 19.4118 39.9098 15.163L39.9085 15.1621ZM27.1166 41.5849L39.9098 55.1401L52.7585 41.5857V38.4698L39.9098 52.0794L27.1179 38.4698L27.1166 41.5849ZM27.1166 37.1641L39.9085 50.7736L52.7573 37.1641V34.0996L39.9085 47.7092L27.1166 34.0996V37.1641ZM27.1166 32.7361L39.9085 46.3541L52.7573 32.7943V29.6784L39.9085 43.288L27.1166 29.6784V32.7361ZM26.8009 9.03697L18.642 17.9919L20.0335 19.4118L26.8013 11.9814L33.5708 19.4118L35.0043 17.9371C32.2861 14.9346 29.57 11.9249 26.8022 9.0374L26.8009 9.03697ZM26.8009 4.78135L16.67 15.9547L18.0615 17.3729L26.8026 7.73373L35.5912 17.3712L36.9751 15.953C33.6212 12.1528 30.2657 8.3527 26.8022 4.78093L26.8009 4.78135ZM26.8009 0.581357L14.6488 13.9145L16.0327 15.3328L26.8018 3.47602L37.5645 15.3328L39.0051 13.9145C34.9556 9.42966 30.9543 4.83739 26.8022 0.580933L26.8009 0.581357ZM0.258108 32.7361L13.0488 46.3545L25.8903 32.7947V29.6788L13.0488 43.2896L0.256836 29.6801L0.258108 32.7361Z" fill="#009EE0"/>
</svg>
