<svg width="54" height="49" viewBox="0 0 54 49" fill="none" xmlns="http://www.w3.org/2000/svg">
<path fill-rule="evenodd" clip-rule="evenodd" d="M42.2108 2.47893C52.7451 5.38347 47.7828 19.9748 37.3502 22.2517C51.5341 26.8859 45.2938 44.6583 27.1574 46.8696L8.5472 47.5122L9.13576 48.2792L30.5298 47.885C53.2743 45.5728 55.8502 26.6085 43.0591 22.9906C57.3658 16.6211 57.9544 2.69839 42.2116 2.47979M10.7976 0.978074L0.873047 40.7196L16.9497 3.00435L3.35271 40.8274L28.8612 2.47125L4.84 41.0404L39.1849 7.92197L5.43618 42.7548L35.7099 26.0826L5.92856 44.6733L34.3247 36.7723L6.13279 45.958H18.7421C42.3277 43.6514 45.1565 24.6892 31.4442 21.0619C45.512 14.8028 45.7379 1.57467 33.5281 0.76416L10.7976 0.978074Z" fill="#F07C00"/>
</svg>
